<!DOCTYPE svg PUBLIC "-//W3C//DTD SVG 1.1//EN" "http://www.w3.org/Graphics/SVG/1.1/DTD/svg11.dtd">
<!-- Uploaded to: SVG Repo, www.svgrepo.com, Transformed by: SVG Repo Mixer Tools -->
<svg fill="#000000" height="64px" width="64px" version="1.1" id="Layer_1" xmlns="http://www.w3.org/2000/svg" xmlns:xlink="http://www.w3.org/1999/xlink" viewBox="0 0 502 502" xml:space="preserve" stroke="#000000" stroke-width="6.526000000000001">
<g id="SVGRepo_bgCarrier" stroke-width="0"/>
<g id="SVGRepo_tracerCarrier" stroke-linecap="round" stroke-linejoin="round" stroke="#CCCCCC" stroke-width="28.112000000000002"> <g> <g> <g> <path d="M492,144H373.3l-27.375-47.415c-1.786-3.094-5.088-5-8.66-5h-172.53c-3.572,0-6.874,1.906-8.66,5L128.7,144H10 c-5.522,0-10,4.478-10,10v194c0,5.522,4.478,10,10,10h118.7l27.375,47.415c1.786,3.094,5.088,5,8.66,5h172.529 c3.572,0,6.874-1.906,8.66-5L373.3,358H492c5.522,0,10-4.478,10-10V154C502,148.478,497.522,144,492,144z M20,338V164h97.153 L69.81,246c-1.786,3.094-1.786,6.906,0,10l47.343,82H20z M358.866,343C358.866,343,358.866,343,358.866,343l-27.375,47.415 H170.509l-27.375-47.414l-53.116-92l53.116-92c0,0,0,0,0-0.001l27.375-47.414h160.982L358.866,159l53.116,92L358.866,343z M482,338h-97.153l47.343-82c1.786-3.094,1.786-6.906,0-10l-47.343-82H482V338z"/> <path d="M251,130c-66.72,0-121,54.28-121,121s54.28,121,121,121s121-54.28,121-121S317.72,130,251,130z M251,352 c-55.691,0-101-45.309-101-101c0-55.691,45.309-101,101-101c55.691,0,101,45.309,101,101C352,306.691,306.691,352,251,352z"/> <path d="M286.03,171.343c-5.056-2.225-10.957,0.067-13.183,5.122s0.068,10.957,5.122,13.183 c7.451,3.28,14.187,7.854,20.018,13.591c1.947,1.916,4.481,2.872,7.013,2.872c2.587,0,5.172-0.997,7.129-2.986 c3.874-3.937,3.822-10.269-0.114-14.142C304.449,181.539,295.707,175.604,286.03,171.343z"/> <path d="M251,164c-47.972,0-87,39.028-87,87s39.028,87,87,87c5.522,0,10-4.478,10-10c0-5.522-4.478-10-10-10 c-36.944,0-67-30.056-67-67c0-36.944,30.056-67,67-67c5.522,0,10-4.478,10-10C261,168.478,256.522,164,251,164z"/> <path d="M251,207c-3.542,0-6.646,1.846-8.422,4.624L226.929,227c-3.905,3.905-3.905,10.236,0,14.143 c1.953,1.952,4.512,2.929,7.071,2.929c2.529,0,5.056-0.958,7-2.864V285c0,5.522,4.478,10,10,10c5.522,0,10-4.478,10-10v-68 C261,211.478,256.522,207,251,207z"/> </g> </g> </g> </g>
<g id="SVGRepo_iconCarrier"> <g> <g> <g> <path d="M492,144H373.3l-27.375-47.415c-1.786-3.094-5.088-5-8.66-5h-172.53c-3.572,0-6.874,1.906-8.66,5L128.7,144H10 c-5.522,0-10,4.478-10,10v194c0,5.522,4.478,10,10,10h118.7l27.375,47.415c1.786,3.094,5.088,5,8.66,5h172.529 c3.572,0,6.874-1.906,8.66-5L373.3,358H492c5.522,0,10-4.478,10-10V154C502,148.478,497.522,144,492,144z M20,338V164h97.153 L69.81,246c-1.786,3.094-1.786,6.906,0,10l47.343,82H20z M358.866,343C358.866,343,358.866,343,358.866,343l-27.375,47.415 H170.509l-27.375-47.414l-53.116-92l53.116-92c0,0,0,0,0-0.001l27.375-47.414h160.982L358.866,159l53.116,92L358.866,343z M482,338h-97.153l47.343-82c1.786-3.094,1.786-6.906,0-10l-47.343-82H482V338z"/> <path d="M251,130c-66.72,0-121,54.28-121,121s54.28,121,121,121s121-54.28,121-121S317.72,130,251,130z M251,352 c-55.691,0-101-45.309-101-101c0-55.691,45.309-101,101-101c55.691,0,101,45.309,101,101C352,306.691,306.691,352,251,352z"/> <path d="M286.03,171.343c-5.056-2.225-10.957,0.067-13.183,5.122s0.068,10.957,5.122,13.183 c7.451,3.28,14.187,7.854,20.018,13.591c1.947,1.916,4.481,2.872,7.013,2.872c2.587,0,5.172-0.997,7.129-2.986 c3.874-3.937,3.822-10.269-0.114-14.142C304.449,181.539,295.707,175.604,286.03,171.343z"/> <path d="M251,164c-47.972,0-87,39.028-87,87s39.028,87,87,87c5.522,0,10-4.478,10-10c0-5.522-4.478-10-10-10 c-36.944,0-67-30.056-67-67c0-36.944,30.056-67,67-67c5.522,0,10-4.478,10-10C261,168.478,256.522,164,251,164z"/> <path d="M251,207c-3.542,0-6.646,1.846-8.422,4.624L226.929,227c-3.905,3.905-3.905,10.236,0,14.143 c1.953,1.952,4.512,2.929,7.071,2.929c2.529,0,5.056-0.958,7-2.864V285c0,5.522,4.478,10,10,10c5.522,0,10-4.478,10-10v-68 C261,211.478,256.522,207,251,207z"/> </g> </g> </g> </g>
</svg>