<!DOCTYPE svg PUBLIC "-//W3C//DTD SVG 1.1//EN" "http://www.w3.org/Graphics/SVG/1.1/DTD/svg11.dtd">
<!-- Uploaded to: SVG Repo, www.svgrepo.com, Transformed by: SVG Repo Mixer Tools -->
<svg fill="#000000" width="64px" height="64px" viewBox="0 0 24.00 24.00" xmlns="http://www.w3.org/2000/svg" transform="matrix(1, 0, 0, 1, 0, 0)rotate(0)" stroke="#000000" stroke-width="0.00024000000000000003">
<g id="SVGRepo_bgCarrier" stroke-width="0"/>
<g id="SVGRepo_tracerCarrier" stroke-linecap="round" stroke-linejoin="round" stroke="#973737" stroke-width="0.4800000000000001"/>
<g id="SVGRepo_iconCarrier"> <title/> <g data-name="Layer 2" id="Layer_2"> <path d="M16,2H7A3,3,0,0,0,4,5V15a3,3,0,0,0,2,2.82V22H18V17.82A3,3,0,0,0,20,15V6A4,4,0,0,0,16,2Zm0,18H8V18h8ZM11,10h5a4,4,0,0,0,2-.56V15a1,1,0,0,1-1,1H7a1,1,0,0,1-1-1V5A1,1,0,0,1,7,4h9a2,2,0,0,1,0,4H11a1,1,0,0,1-1-1H8A3,3,0,0,0,11,10Z"/> </g> </g>
</svg>