<!DOCTYPE svg PUBLIC "-//W3C//DTD SVG 1.1//EN" "http://www.w3.org/Graphics/SVG/1.1/DTD/svg11.dtd">

<!-- Uploaded to: SVG Repo, www.svgrepo.com, Transformed by: SVG Repo Mixer Tools -->
<svg fill="#000000" width="64px" height="64px" viewBox="-25.6 -25.6 307.20 307.20" id="Flat" xmlns="http://www.w3.org/2000/svg" transform="rotate(180)">

<g id="SVGRepo_bgCarrier" stroke-width="0">

<path transform="translate(-25.6, -25.6), scale(19.2)" fill="#b8b8b8" d="M9.166.33a2.25 2.25 0 00-2.332 0l-5.25 3.182A2.25 2.25 0 00.5 5.436v5.128a2.25 2.25 0 001.084 1.924l5.25 3.182a2.25 2.25 0 002.332 0l5.25-3.182a2.25 2.25 0 001.084-1.924V5.436a2.25 2.25 0 00-1.084-1.924L9.166.33z" strokewidth="0"/>

</g>

<g id="SVGRepo_tracerCarrier" stroke-linecap="round" stroke-linejoin="round"/>

<g id="SVGRepo_iconCarrier"> <path d="M80.00586,228.01172a11.9889,11.9889,0,0,1-5.876-1.55664A11.85952,11.85952,0,0,1,68,215.98877V40.01123A12,12,0,0,1,86.25781,29.772l143.97656,87.98877h0a12.00023,12.00023,0,0,1,0,20.47852L86.25781,226.228A11.96075,11.96075,0,0,1,80.00586,228.01172Zm.01953-192.01611a4.13227,4.13227,0,0,0-1.98242.52685A3.92428,3.92428,0,0,0,76,40.01123V215.98877a3.99986,3.99986,0,0,0,6.08594,3.41309L226.0625,131.41309a4.00009,4.00009,0,0,0,0-6.82618L82.08594,36.59814A3.89956,3.89956,0,0,0,80.02539,35.99561Z"/> </g>

</svg>